<svg width="20" height="20" viewBox="0 0 20 20" fill="#363636" xmlns="http://www.w3.org/2000/svg">
<rect opacity="0.01" width="20" height="20" fill="black"/>
<path fill-rule="evenodd" clip-rule="evenodd" d="M17.1002 12.675L15.6002 11.1667V7.45003C15.6414 4.59615 13.5714 2.1491 10.7502 1.71669C9.14831 1.50574 7.53319 1.99483 6.31745 3.05899C5.10171 4.12316 4.40313 5.65933 4.40018 7.27503V11.1667L2.90018 12.675C2.51498 13.0666 2.40169 13.6508 2.61258 14.1581C2.82346 14.6653 3.31754 14.9969 3.86685 15H6.66685V15.2834C6.74789 17.0448 8.23853 18.4087 10.0002 18.3334C11.7618 18.4087 13.2525 17.0448 13.3335 15.2834V15H16.1335C16.6828 14.9969 17.1769 14.6653 17.3878 14.1581C17.5987 13.6508 17.4854 13.0666 17.1002 12.675ZM11.6668 15.2834C11.5708 16.1161 10.8364 16.7257 10.0002 16.6667C9.16401 16.7257 8.42952 16.1161 8.33351 15.2834V15H11.6668V15.2834ZM5.57518 12.35L4.59185 13.3334H15.4085L14.4168 12.35C14.1049 12.0355 13.931 11.6097 13.9335 11.1667V7.41669C13.9762 5.39844 12.5261 3.6569 10.5335 3.33336C9.40192 3.18568 8.26253 3.54211 7.41685 4.30836C6.55991 5.05617 6.06776 6.13768 6.06685 7.27503V11.1667C6.0672 11.6109 5.89021 12.0369 5.57518 12.35Z" />
</svg>
