<svg width="20" height="20" viewBox="0 0 20 20" fill="#363636" xmlns="http://www.w3.org/2000/svg">
<rect opacity="0.01" width="20" height="20" fill="black"/>
<path fill-rule="evenodd" clip-rule="evenodd" d="M13.3337 5.83333C13.3337 7.67428 11.8413 9.16667 10.0003 9.16667C8.15938 9.16667 6.66699 7.67428 6.66699 5.83333C6.66699 3.99238 8.15938 2.5 10.0003 2.5C11.8413 2.5 13.3337 3.99238 13.3337 5.83333ZM11.667 5.83333C11.667 4.91286 10.9208 4.16667 10.0003 4.16667C9.07985 4.16667 8.33366 4.91286 8.33366 5.83333C8.33366 6.75381 9.07985 7.5 10.0003 7.5C10.9208 7.5 11.667 6.75381 11.667 5.83333Z" />
<path fill-rule="evenodd" clip-rule="evenodd" d="M10.0003 10.8333C6.77866 10.8333 4.16699 13.445 4.16699 16.6666C4.16699 17.1269 4.54009 17.5 5.00033 17.5C5.46056 17.5 5.83366 17.1269 5.83366 16.6666C5.83366 14.3655 7.69914 12.5 10.0003 12.5C12.3015 12.5 14.167 14.3655 14.167 16.6666C14.167 17.1269 14.5401 17.5 15.0003 17.5C15.4606 17.5 15.8337 17.1269 15.8337 16.6666C15.8337 13.445 13.222 10.8333 10.0003 10.8333V10.8333Z" />
</svg>
