<svg width="16" height="12" viewBox="0 0 16 12" fill="none" xmlns="http://www.w3.org/2000/svg">
<path d="M15.896 1.43855L14.5923 0.130112C14.5404 0.0722811 14.4589 0.0433655 14.3849 0.0433655C14.3034 0.0433655 14.2293 0.0722811 14.1774 0.130112L5.14041 9.01445L1.85152 5.80481C1.79226 5.74698 1.71819 5.71806 1.64411 5.71806C1.57004 5.71806 1.49596 5.74698 1.4367 5.80481L0.118186 7.09156C-0.00033275 7.20722 -0.00033275 7.38794 0.118186 7.50361L4.26633 11.5518C4.533 11.812 4.85893 11.9638 5.133 11.9638C5.52559 11.9638 5.86633 11.6819 5.99226 11.5663H5.99967L15.9034 1.85059C16.0071 1.7277 16.0071 1.54698 15.896 1.43855Z" fill="#DE3F3F"/>
</svg>
