<svg width="16" height="16" viewBox="0 0 16 16" fill="none" xmlns="http://www.w3.org/2000/svg">
<path fill-rule="evenodd" clip-rule="evenodd" d="M16 6.07758C15.225 6.37751 14.6792 7.12315 14.6792 7.99792C14.6792 8.87685 15.2292 9.62249 15.9958 9.92242C15.7917 10.7722 15.4542 11.5762 15.0083 12.301C14.7458 12.1843 14.4583 12.126 14.175 12.126C13.6458 12.126 13.1208 12.326 12.7208 12.7259C12.1042 13.3465 11.9625 14.2588 12.2958 15.0128C11.5708 15.4585 10.7708 15.7959 9.91667 16C9.62083 15.2294 8.875 14.6837 8 14.6837C7.125 14.6837 6.37917 15.2294 6.08333 16C5.23333 15.7959 4.42917 15.4585 3.70417 15.0128C4.0375 14.2588 3.89583 13.3424 3.27917 12.7259C2.875 12.326 2.35 12.126 1.825 12.126C1.54167 12.126 1.25833 12.1843 0.991667 12.301C0.545833 11.5762 0.208333 10.7764 0.00416667 9.92242C0.775 9.62249 1.32083 8.87685 1.32083 8.00208C1.32083 7.12315 0.770833 6.37751 0 6.08175C0.204167 5.22781 0.541667 4.42801 0.983333 3.69904C1.25 3.81984 1.53333 3.87816 1.82083 3.87816C2.34583 3.87816 2.875 3.67821 3.275 3.27831C3.89583 2.65764 4.0375 1.74121 3.7 0.987243C4.425 0.541526 5.225 0.204114 6.07917 0C6.375 0.770633 7.125 1.32049 8 1.32049C8.875 1.32049 9.625 0.770633 9.92083 0C10.7708 0.204114 11.575 0.541526 12.2958 0.987243C11.9625 1.74538 12.1 2.65764 12.7208 3.27831C13.125 3.67821 13.65 3.87816 14.175 3.87816C14.4625 3.87816 14.7458 3.81567 15.0125 3.69904C15.4583 4.42385 15.7958 5.22364 16 6.07758ZM4.70417 7.99375C4.70417 9.83077 6.19167 11.3262 8.0375 11.3262C9.88333 11.3262 11.3708 9.83077 11.3708 7.99375C11.3708 6.15673 9.88333 4.66129 8.0375 4.66129C6.19167 4.66129 4.70417 6.15673 4.70417 7.99375Z" fill="#1D262C"/>
</svg>
