<svg width="20" height="20" viewBox="0 0 20 20" fill="none" xmlns="http://www.w3.org/2000/svg">
<rect opacity="0.01" width="20" height="20" fill="black"/>
<path fill-rule="evenodd" clip-rule="evenodd" d="M3.3335 8.26667C3.37006 4.61083 6.34414 1.66648 10.0002 1.66667C13.6562 1.66648 16.6303 4.61083 16.6668 8.26667C16.6668 12.8333 10.8335 17.9167 10.5418 18.1333C10.23 18.4001 9.77035 18.4001 9.4585 18.1333L9.45713 18.1321C9.18793 17.8989 3.3335 12.8253 3.3335 8.26667ZM5.00016 8.26667C5.00016 11.375 8.6085 15.05 10.0002 16.375C11.3918 15.05 15.0002 11.35 15.0002 8.26667C15.0002 5.50524 12.7616 3.26667 10.0002 3.26667C7.23874 3.26667 5.00016 5.50524 5.00016 8.26667Z" fill="#DC2F2F"/>
<path fill-rule="evenodd" clip-rule="evenodd" d="M7.0835 7.91667C7.0835 6.30584 8.38933 5 10.0002 5C11.611 5 12.9168 6.30584 12.9168 7.91667C12.9168 9.5275 11.611 10.8333 10.0002 10.8333C8.38933 10.8333 7.0835 9.5275 7.0835 7.91667ZM8.75016 7.91667C8.75016 8.60702 9.30981 9.16667 10.0002 9.16667C10.6905 9.16667 11.2502 8.60702 11.2502 7.91667C11.2502 7.22631 10.6905 6.66667 10.0002 6.66667C9.30981 6.66667 8.75016 7.22631 8.75016 7.91667Z" fill="#DC2F2F"/>
</svg>
