<svg width="35" height="34" viewBox="0 0 35 34" fill="#FFEFB4" xmlns="http://www.w3.org/2000/svg">
<path d="M17.3297 0C8.10597 0 0.628662 7.47731 0.628662 16.701C0.628662 25.9248 8.10597 33.4021 17.3297 33.4021C26.5534 33.4021 34.0307 25.9248 34.0307 16.701C34.0202 7.48164 26.5491 0.0104848 17.3297 0ZM8.97921 14.3152C8.97921 12.9975 10.0474 11.9293 11.3651 11.9293C12.6827 11.9293 13.7509 12.9975 13.7509 14.3152C13.7509 15.6328 12.6827 16.701 11.3651 16.701C10.0474 16.701 8.97921 15.6328 8.97921 14.3152ZM21.6553 22.4033C19.1013 24.3534 15.5582 24.3534 13.0041 22.4033C12.4998 21.9793 12.4346 21.2268 12.8586 20.7225C13.2692 20.2341 13.9913 20.1553 14.4977 20.5435C16.1847 21.7757 18.4748 21.7757 20.1618 20.5435C20.6846 20.1425 21.4334 20.2414 21.8343 20.7642C22.2225 21.2705 22.1437 21.9927 21.6553 22.4033ZM23.2944 16.701C21.9767 16.701 20.9086 15.6328 20.9086 14.3152C20.9086 12.9975 21.9767 11.9293 23.2944 11.9293C24.6121 11.9293 25.6802 12.9975 25.6802 14.3152C25.6802 15.6328 24.6121 16.701 23.2944 16.701Z"/>
</svg>
