<svg width="34" height="34" viewBox="0 0 34 34" fill="#FFEFB4" xmlns="http://www.w3.org/2000/svg">
<path d="M16.7 0C7.4746 0 0 7.4746 0 16.7C0 25.9254 7.4746 33.4 16.7 33.4C25.9254 33.4 33.4 25.9254 33.4 16.7C33.4 7.4746 25.9254 0 16.7 0ZM7.54194 14.5048C7.76415 11.6698 9.71024 9.69677 11.3129 9.69677C12.9156 9.69677 14.8617 11.6698 15.0839 14.5048C15.131 15.0839 14.3566 15.3061 14.0805 14.8078L13.4408 13.663C12.9223 12.7405 12.1479 12.2085 11.3196 12.2085C10.4914 12.2085 9.71698 12.7405 9.19847 13.663L8.55875 14.8078C8.26919 15.3061 7.4948 15.0771 7.54194 14.5048ZM24.4305 22.774C22.5113 25.0769 19.6966 26.3968 16.7 26.3968C13.7034 26.3968 10.8887 25.0769 8.96952 22.774C8.06044 21.6763 9.71024 20.3026 10.626 21.3935C12.1344 23.2049 14.3431 24.2352 16.7 24.2352C19.0569 24.2352 21.2656 23.1982 22.774 21.3935C23.6898 20.3026 25.3396 21.6831 24.4305 22.774ZM24.848 14.8078L24.2083 13.663C23.6898 12.7405 22.9154 12.2085 22.0871 12.2085C21.2588 12.2085 20.4844 12.7405 19.9659 13.663L19.3262 14.8078C19.0501 15.2994 18.2757 15.0771 18.3229 14.5048C18.5451 11.6698 20.4912 9.69677 22.0938 9.69677C23.6965 9.69677 25.6426 11.6698 25.8648 14.5048C25.9052 15.0839 25.1241 15.3061 24.848 14.8078Z"/>
</svg>
