<svg width="34" height="34" viewBox="0 0 34 34" fill="#FFEFB4" xmlns="http://www.w3.org/2000/svg">
<path d="M16.701 0C7.4925 0 0 7.4925 0 16.701C0 25.9096 7.4925 33.4021 16.701 33.4021C25.9096 33.4021 33.4021 25.9096 33.4021 16.701C33.4021 7.4925 25.9096 0 16.701 0ZM8.35052 12.5258C8.35052 11.3755 9.28786 10.4381 10.4381 10.4381C11.5884 10.4381 12.5258 11.3755 12.5258 12.5258C12.5258 13.6761 11.5884 14.6134 10.4381 14.6134C9.28786 14.6134 8.35052 13.6761 8.35052 12.5258ZM24.0808 25.4106C23.8762 25.6152 23.609 25.7154 23.3418 25.7154C23.0746 25.7154 22.8073 25.6131 22.6028 25.4106C19.4463 22.2541 13.9474 22.2541 10.793 25.4106C10.386 25.8177 9.72417 25.8177 9.31709 25.4106C8.91 25.0035 8.91 24.3418 9.31709 23.9347C11.292 21.9639 13.912 20.8763 16.701 20.8763C19.4901 20.8763 22.1101 21.9639 24.0808 23.9347C24.4879 24.3418 24.4879 25.0035 24.0808 25.4106ZM22.9639 14.6134C21.8136 14.6134 20.8763 13.6761 20.8763 12.5258C20.8763 11.3755 21.8136 10.4381 22.9639 10.4381C24.1142 10.4381 25.0515 11.3755 25.0515 12.5258C25.0515 13.6761 24.1142 14.6134 22.9639 14.6134Z" />
</svg>
