<svg width="34" height="34" viewBox="0 0 34 34" fill="#FFEFB4" xmlns="http://www.w3.org/2000/svg">
<path d="M16.9588 0.113403C7.75031 0.113403 0.257812 7.6059 0.257812 16.8144C0.257812 26.023 7.75031 33.5155 16.9588 33.5155C26.1674 33.5155 33.6599 26.023 33.6599 16.8144C33.6599 7.6059 26.1674 0.113403 16.9588 0.113403ZM8.60833 12.6392C8.60833 11.4889 9.54567 10.5515 10.696 10.5515C11.8462 10.5515 12.7836 11.4889 12.7836 12.6392C12.7836 13.7895 11.8462 14.7268 10.696 14.7268C9.54567 14.7268 8.60833 13.7895 8.60833 12.6392ZM22.5662 23.0022L12.1281 27.1774C12.0007 27.2275 11.8692 27.2526 11.7398 27.2526C11.3264 27.2526 10.9339 27.0042 10.7711 26.5971C10.5561 26.0626 10.817 25.4551 11.3536 25.2422L21.7917 21.0669C22.3261 20.8519 22.9336 21.1129 23.1466 21.6473C23.3595 22.1817 23.1006 22.7871 22.5662 23.0022ZM23.2217 14.7268C22.0714 14.7268 21.1341 13.7895 21.1341 12.6392C21.1341 11.4889 22.0714 10.5515 23.2217 10.5515C24.372 10.5515 25.3094 11.4889 25.3094 12.6392C25.3094 13.7895 24.372 14.7268 23.2217 14.7268Z"/>
</svg>
