<svg width="34" height="34" viewBox="0 0 34 34" fill="#FFEFB4" xmlns="http://www.w3.org/2000/svg">
<path d="M17.2989 0.113403C8.07509 0.113403 0.5979 7.59059 0.5979 16.8144C0.5979 26.0383 8.07509 33.5155 17.2989 33.5155C26.5228 33.5155 34 26.0383 34 16.8144C34 7.59059 26.5228 0.113403 17.2989 0.113403ZM20.7996 10.8816L20.8001 10.8811C21.8248 9.85635 23.1872 9.29214 24.6362 9.29214C26.085 9.29214 27.4473 9.85661 28.472 10.8811C28.8543 11.2631 28.8545 11.8828 28.4725 12.2651C28.0905 12.6473 27.471 12.6476 27.0888 12.2656C26.4331 11.6101 25.5623 11.2493 24.6362 11.2493C23.7099 11.2493 22.8391 11.6101 22.1842 12.2651C21.8019 12.6471 21.1821 12.6476 20.7999 12.2653C20.4176 11.8831 20.4174 11.2638 20.7996 10.8816ZM6.12533 10.8816L6.12584 10.8811C7.15054 9.85635 8.5129 9.29214 9.9619 9.29214C11.4107 9.29214 12.773 9.85661 13.7977 10.8811C14.18 11.2631 14.1802 11.8828 13.7982 12.2651C13.4162 12.6473 12.7967 12.6476 12.4145 12.2656C11.7588 11.6101 10.888 11.2493 9.9619 11.2493C9.03557 11.2493 8.16479 11.6101 7.50986 12.2651C7.1276 12.6471 6.50784 12.6476 6.12558 12.2653C5.74332 11.8831 5.74307 11.2638 6.12533 10.8816ZM17.2989 28.4052C10.9695 28.4052 5.83863 23.2743 5.83863 16.9449C5.83863 16.4044 6.27695 15.9663 6.81721 15.9663H27.7807C28.3209 15.9663 28.7592 16.4044 28.7592 16.9449C28.7592 23.2743 23.6283 28.4052 17.2989 28.4052Z" />
</svg>
